{
	"asset":{
		"generator":"Khronos glTF Blender I/O v4.2.70",
		"version":"2.0"
	},
	"scene":0,
	"scenes":[
		{
			"name":"Scene",
			"nodes":[
				0
			]
		}
	],
	"nodes":[
		{
			"mesh":0,
			"name":"VCARB02",
			"rotation":[
				0.7071068286895752,
				0,
				0,
				0.7071068286895752
			]
		}
	],
	"materials":[
		{
			"doubleSided":true,
			"name":"Material.001",
			"pbrMetallicRoughness":{
				"baseColorTexture":{
					"index":0
				},
				"metallicFactor":0,
				"roughnessFactor":0.5
			}
		}
	],
	"meshes":[
		{
			"name":"VCARB02",
			"primitives":[
				{
					"attributes":{
						"POSITION":0,
						"NORMAL":1,
						"TEXCOORD_0":2
					},
					"indices":3,
					"material":0
				}
			]
		}
	],
	"textures":[
		{
			"sampler":0,
			"source":0
		}
	],
	"images":[
		{
			"mimeType":"image/png",
			"name":"VCARB02_01_pepacra02",
			"uri":"VCARB02_01_pepacra02.png"
		}
	],
	"accessors":[
		{
			"bufferView":0,
			"componentType":5126,
			"count":4876,
			"max":[
				0.8332149982452393,
				2.214909076690674,
				-0.0010649999603629112
			],
			"min":[
				-0.8332149982452393,
				-2.241218090057373,
				-0.9187080264091492
			],
			"type":"VEC3"
		},
		{
			"bufferView":1,
			"componentType":5126,
			"count":4876,
			"type":"VEC3"
		},
		{
			"bufferView":2,
			"componentType":5126,
			"count":4876,
			"type":"VEC2"
		},
		{
			"bufferView":3,
			"componentType":5123,
			"count":14178,
			"type":"SCALAR"
		}
	],
	"bufferViews":[
		{
			"buffer":0,
			"byteLength":58512,
			"byteOffset":0,
			"target":34962
		},
		{
			"buffer":0,
			"byteLength":58512,
			"byteOffset":58512,
			"target":34962
		},
		{
			"buffer":0,
			"byteLength":39008,
			"byteOffset":117024,
			"target":34962
		},
		{
			"buffer":0,
			"byteLength":28356,
			"byteOffset":156032,
			"target":34963
		}
	],
	"samplers":[
		{
			"magFilter":9729,
			"minFilter":9987
		}
	],
	"buffers":[
		{
			"byteLength":184388,
			"uri":"vcarb02.bin"
		}
	]
}
